<svg width="20" height="20" viewBox="0 0 20 20" fill="none" xmlns="http://www.w3.org/2000/svg">
<path d="M17.3124 4.56092C16.4924 3.74257 15.3815 3.28245 14.223 3.28128C13.0646 3.28011 11.9528 3.73798 11.1311 4.55467L9.99988 5.60779L8.86863 4.55467C8.0476 3.73467 6.93445 3.27441 5.77407 3.27515C4.61369 3.27588 3.50113 3.73754 2.68113 4.55857C1.86114 5.37961 1.40088 6.49275 1.40161 7.65313C1.40234 8.81351 1.86401 9.92608 2.68504 10.7461L9.66629 17.8289C9.70989 17.8731 9.76183 17.9081 9.8191 17.9321C9.87636 17.956 9.93781 17.9683 9.99988 17.9683C10.0619 17.9683 10.1234 17.956 10.1807 17.9321C10.2379 17.9081 10.2899 17.8731 10.3335 17.8289L17.3124 10.7492C17.7188 10.3429 18.0412 9.86056 18.2612 9.32966C18.4811 8.79876 18.5943 8.22972 18.5943 7.65506C18.5943 7.08039 18.4811 6.51136 18.2612 5.98046C18.0412 5.44956 17.7188 4.96719 17.3124 4.56092ZM16.6468 10.0883L9.99988 16.832L3.35066 10.0859C2.70976 9.44052 2.35076 8.56743 2.35232 7.65788C2.35387 6.74832 2.71583 5.87646 3.35894 5.23325C4.00204 4.59005 4.87384 4.22794 5.7834 4.22624C6.69295 4.22454 7.5661 4.5834 8.2116 5.2242C8.21539 5.22825 8.21958 5.23191 8.2241 5.23514L9.68035 6.59139C9.76712 6.67222 9.8813 6.71717 9.99988 6.71717C10.1185 6.71717 10.2326 6.67222 10.3194 6.59139L11.7757 5.23435C11.7802 5.23113 11.7844 5.22747 11.7882 5.22342C12.1071 4.90255 12.4863 4.6478 12.9039 4.47379C13.3216 4.29978 13.7695 4.20993 14.2219 4.20938C14.6743 4.20884 15.1224 4.29762 15.5405 4.47063C15.9585 4.64363 16.3383 4.89747 16.6581 5.21757C16.9778 5.53767 17.2312 5.91775 17.4038 6.336C17.5763 6.75424 17.6646 7.20244 17.6635 7.65488C17.6625 8.10731 17.5721 8.55509 17.3976 8.97254C17.2232 9.38998 16.968 9.76887 16.6468 10.0875V10.0883Z" fill="#212529"/>
</svg>
