<svg width="189" height="20" viewBox="0 0 189 20" fill="none" xmlns="http://www.w3.org/2000/svg">
<path d="M171.475 5.2125V15.5075C171.469 16.684 171.927 17.8155 172.749 18.6564C173.572 19.4973 174.694 19.9797 175.87 19.9987C176.78 20.0156 177.671 19.7372 178.41 19.2051C179.149 18.6731 179.695 17.9161 179.967 17.0475L180.43 17.8675C180.82 18.5172 181.373 19.0546 182.033 19.427C182.693 19.7995 183.438 19.9943 184.196 19.9925C184.766 19.9975 185.331 19.889 185.858 19.6733C186.386 19.4576 186.865 19.1391 187.268 18.7362C187.671 18.3334 187.989 17.8544 188.205 17.3271C188.421 16.7998 188.53 16.2347 188.525 15.665C188.536 14.8413 188.306 14.0323 187.864 13.3375L186.145 10.6162C186.795 10.1103 187.316 9.45821 187.666 8.71303C188.016 7.96785 188.186 7.15055 188.161 6.3275C188.159 5.52494 187.997 4.73087 187.683 3.99204C187.37 3.25321 186.912 2.58456 186.336 2.02545C185.76 1.46634 185.079 1.02808 184.331 0.736481C183.583 0.444876 182.785 0.30582 181.982 0.3275H176.266C173.16 0.3275 171.475 2 171.475 5.2125Z" fill="#05CE78"/>
<path d="M170.164 16.23C170.195 15.3823 169.923 14.5512 169.398 13.8851C168.873 13.219 168.128 12.7613 167.296 12.5938C167.687 12.3284 168.004 11.9672 168.215 11.5445C168.427 11.1219 168.526 10.6521 168.504 10.18C168.533 9.70718 168.437 9.23492 168.226 8.81106C168.014 8.38719 167.694 8.02676 167.299 7.76625C168.135 7.60899 168.887 7.15404 169.414 6.48556C169.941 5.81707 170.208 4.98029 170.166 4.13C170.17 3.63405 170.076 3.14224 169.889 2.68269C169.703 2.22313 169.427 1.80484 169.079 1.45171C168.731 1.09858 168.316 0.817535 167.86 0.624638C167.403 0.431741 166.912 0.330772 166.416 0.3275H159.575C156.447 0.3275 154.754 2.01375 154.754 5.22V15.105C154.754 18.345 156.447 19.9975 159.575 19.9975H166.416C166.911 20.0007 167.402 19.9052 167.859 19.7167C168.317 19.5282 168.733 19.2505 169.082 18.8996C169.431 18.5488 169.706 18.1319 169.893 17.6733C170.079 17.2147 170.172 16.7237 170.166 16.2287" fill="#05CE78"/>
<path d="M149.44 15.5775V8.78625C150.541 8.72637 151.575 8.23936 152.322 7.42883C153.069 6.6183 153.471 5.54821 153.441 4.44621C153.411 3.3442 152.953 2.29724 152.163 1.52805C151.374 0.758854 150.315 0.32813 149.213 0.3275H140.295C139.738 0.323173 139.186 0.429631 138.671 0.640675C138.156 0.85172 137.688 1.16314 137.294 1.55679C136.901 1.95045 136.589 2.41848 136.378 2.93364C136.167 3.4488 136.061 4.0008 136.065 4.5575C136.066 5.63974 136.481 6.68052 137.225 7.46686C137.969 8.2532 138.985 8.72564 140.065 8.7875V15.5775C140.138 16.7712 140.664 17.8921 141.535 18.7115C142.406 19.531 143.557 19.9872 144.753 19.9872C145.948 19.9872 147.099 19.531 147.97 18.7115C148.841 17.8921 149.367 16.7712 149.44 15.5775Z" fill="#05CE78"/>
<path d="M118.689 5.2125V15.5075C118.682 16.684 119.14 17.8155 119.963 18.6564C120.786 19.4973 121.907 19.9797 123.084 19.9987C123.994 20.0158 124.885 19.7375 125.624 19.2054C126.363 18.6733 126.909 17.9162 127.181 17.0475L127.644 17.8675C128.034 18.5172 128.586 19.0546 129.246 19.427C129.907 19.7995 130.652 19.9943 131.41 19.9925C131.98 19.9975 132.545 19.889 133.072 19.6733C133.599 19.4576 134.079 19.1391 134.482 18.7362C134.885 18.3334 135.203 17.8544 135.419 17.3271C135.635 16.7998 135.744 16.2347 135.739 15.665C135.75 14.8413 135.52 14.0323 135.077 13.3375L133.359 10.6162C134.008 10.1103 134.529 9.45821 134.88 8.71303C135.23 7.96785 135.4 7.15055 135.375 6.3275C135.373 5.52494 135.211 4.73087 134.897 3.99204C134.584 3.25321 134.126 2.58456 133.55 2.02545C132.974 1.46634 132.292 1.02808 131.545 0.736481C130.797 0.444876 129.999 0.30582 129.196 0.3275H123.48C120.408 0.3275 118.689 2 118.689 5.2125Z" fill="#05CE78"/>
<path d="M107.844 16.25C108.963 18.5625 110.541 19.67 112.483 19.67C113.294 19.7123 114.102 19.5421 114.828 19.1763C115.553 18.8105 116.171 18.2617 116.619 17.5842C117.068 16.9067 117.332 16.1239 117.385 15.3131C117.439 14.5024 117.28 13.6917 116.924 12.9613L112.878 3.58625C112.554 2.52252 111.889 1.59512 110.985 0.947521C110.081 0.299922 108.989 -0.0317742 107.878 0.00374953C105.378 0.00374953 103.896 1.27375 102.878 3.58625L98.8313 12.9613C98.4719 13.6887 98.309 14.4975 98.3587 15.3073C98.4085 16.1172 98.669 16.9 99.1146 17.578C99.5602 18.2561 100.175 18.8059 100.899 19.1729C101.623 19.5398 102.43 19.7112 103.24 19.67C105.149 19.67 106.728 18.5625 107.846 16.25" fill="#05CE78"/>
<path d="M96.3263 15.5775V8.78625C97.4277 8.72634 98.4622 8.2388 99.2095 7.42746C99.9568 6.61613 100.358 5.54509 100.327 4.44246C100.297 3.33982 99.8367 2.2927 99.0455 1.52411C98.2543 0.755511 97.1943 0.326163 96.0912 0.3275H87.1888C86.6316 0.322848 86.0791 0.429028 85.5634 0.639865C85.0476 0.850701 84.579 1.16198 84.1847 1.55561C83.7903 1.94923 83.4782 2.41733 83.2665 2.93268C83.0547 3.44804 82.9476 4.00035 82.9512 4.5575C82.9546 5.64043 83.3712 6.68124 84.116 7.46739C84.8608 8.25354 85.8776 8.72571 86.9587 8.7875V15.5775C87.0264 16.7732 87.5492 17.8977 88.4196 18.7203C89.2901 19.5429 90.4423 20.0012 91.64 20.0012C92.8376 20.0012 93.9899 19.5429 94.8603 18.7203C95.7308 17.8977 96.2535 16.7732 96.3213 15.5775" fill="#05CE78"/>
<path d="M82.95 13.6188C82.9185 12.7047 82.6804 11.8096 82.2538 11.0006C81.8271 10.1916 81.2228 9.48972 80.4863 8.9475L79.27 7.8625C80.0774 7.80919 80.8337 7.44881 81.3837 6.85534C81.9337 6.26187 82.2356 5.48035 82.2275 4.67125C82.2275 1.74375 79.895 0 74.9625 0C70.1325 0 67.3075 2.43375 67.3075 6.2825C67.3496 7.19826 67.5959 8.09302 68.0284 8.90127C68.461 9.70952 69.0689 10.4108 69.8075 10.9537L70.99 12.0387H70.9625C68.7613 12.0387 67.2125 13.3212 67.2125 15.3287C67.2125 18.2237 69.6438 20 74.8375 20C79.93 20 82.9525 17.5325 82.9525 13.6188" fill="#05CE78"/>
<path d="M66.23 15.2675C66.2353 14.3422 65.9454 13.4393 65.4025 12.69L63.285 9.7875L65.4 6.88375C65.9473 6.1367 66.2377 5.2323 66.2275 4.30625C66.2195 3.73674 66.0994 3.17438 65.874 2.65133C65.6485 2.12827 65.3222 1.65476 64.9137 1.25786C64.5052 0.86096 64.0225 0.548454 63.4932 0.338201C62.9638 0.127947 62.3983 0.0240682 61.8288 0.0325002C61.1193 0.0385995 60.4209 0.209859 59.7891 0.532707C59.1573 0.855554 58.6094 1.32112 58.1887 1.8925L57.1625 3.3275C56.9568 2.36508 56.4204 1.50516 55.6464 0.897237C54.8725 0.289317 53.91 -0.0281596 52.9262 1.85984e-07C52.3487 -0.00630806 51.7757 0.102354 51.2406 0.319657C50.7055 0.53696 50.219 0.858561 49.8093 1.26573C49.3997 1.6729 49.0752 2.1575 48.8547 2.6913C48.6342 3.22511 48.5221 3.79745 48.525 4.375V15.3C48.525 15.8767 48.639 16.4478 48.8605 16.9803C49.082 17.5128 49.4066 17.9963 49.8157 18.4029C50.2247 18.8095 50.7101 19.1312 51.2439 19.3495C51.7778 19.5679 52.3495 19.6785 52.9262 19.675C53.889 19.713 54.8351 19.4146 55.6019 18.8312C56.3687 18.2477 56.9086 17.4156 57.1287 16.4775L58.055 17.7825C58.6022 18.5566 59.38 19.1381 60.2773 19.4441C61.1746 19.75 62.1456 19.7648 63.0517 19.4863C63.9579 19.2077 64.753 18.6501 65.3235 17.893C65.894 17.1358 66.2108 16.2178 66.2287 15.27" fill="#05CE78"/>
<path d="M46.885 14.265C46.9109 13.2885 46.6207 12.3297 46.0576 11.5315C45.4945 10.7332 44.6886 10.1382 43.76 9.835C44.6916 9.5366 45.5006 8.94276 46.0645 8.14341C46.6283 7.34405 46.9164 6.38272 46.885 5.405C46.885 2.24625 44.245 -0.00124954 40.01 -0.00124954C38.7074 -0.0390294 37.4109 0.18953 36.1998 0.670425C34.9887 1.15132 33.8885 1.87443 32.9667 2.79544C32.0449 3.71645 31.3208 4.81598 30.8388 6.02666C30.3568 7.23734 30.1271 8.53368 30.1637 9.83625C30.1273 11.1385 30.3571 12.4345 30.839 13.6448C31.3209 14.8552 32.0447 15.9545 32.9663 16.8753C33.8878 17.7962 34.9876 18.5192 36.1984 19.0002C37.4091 19.4811 38.7053 19.7099 40.0075 19.6725C44.245 19.6725 46.8825 17.4225 46.8825 14.2662" fill="#05CE78"/>
<path d="M23.7863 1.88562e-07C22.5313 -0.00271614 21.3261 0.490231 20.4328 1.37159C19.5395 2.25296 19.0304 3.45142 19.0163 4.70625V14.9675C19.0163 16.2283 19.5171 17.4374 20.4086 18.3289C21.3001 19.2204 22.5092 19.7213 23.77 19.7213C25.0308 19.7213 26.2399 19.2204 27.1314 18.3289C28.0229 17.4374 28.5238 16.2283 28.5238 14.9675V4.70625C28.5233 4.08572 28.4002 3.4714 28.1615 2.89859C27.9229 2.32578 27.5734 1.80577 27.1332 1.36844C26.693 0.931117 26.1706 0.585091 25.5963 0.350248C25.0219 0.115406 24.4068 -0.00362306 23.7863 1.88562e-07Z" fill="#05CE78"/>
<path d="M17.705 15.2675C17.7103 14.3424 17.4209 13.4396 16.8787 12.69L14.765 9.7875L16.875 6.88375C17.4216 6.13638 17.7115 5.23211 17.7012 4.30625C17.6939 3.73729 17.5745 3.17536 17.3499 2.65258C17.1252 2.12979 16.7997 1.65642 16.392 1.2595C15.9843 0.86259 15.5024 0.549927 14.9737 0.339389C14.4451 0.128852 13.8802 0.0245677 13.3112 0.0324996C12.6029 0.0388874 11.9057 0.210322 11.2752 0.533193C10.6446 0.856064 10.098 1.32148 9.67875 1.8925L8.625 3.3275C8.42061 2.36537 7.88521 1.50541 7.11205 0.897387C6.33888 0.289364 5.37694 -0.0281997 4.39375 -3.56367e-07C3.81672 -0.00581382 3.24429 0.103241 2.70982 0.320813C2.17535 0.538385 1.68951 0.860124 1.28059 1.26729C0.871679 1.67446 0.547864 2.15892 0.328008 2.69246C0.108153 3.226 -0.0033489 3.79795 -3.17354e-06 4.375V15.3C-8.46441e-06 15.8761 0.113773 16.4466 0.334808 16.9786C0.555844 17.5106 0.879782 17.9937 1.28803 18.4002C1.69627 18.8067 2.18078 19.1286 2.71375 19.3474C3.24671 19.5661 3.81764 19.6775 4.39375 19.675C5.35591 19.7123 6.30101 19.4132 7.06659 18.8292C7.83217 18.2452 8.37039 17.4128 8.58875 16.475L9.51375 17.78C10.0646 18.5506 10.8437 19.1286 11.7409 19.4322C12.6381 19.7358 13.6081 19.7497 14.5137 19.472C15.4193 19.1942 16.2146 18.6388 16.7873 17.8843C17.36 17.1298 17.681 16.2144 17.705 15.2675Z" fill="#05CE78"/>
</svg>
