<svg width="20" height="20" viewBox="0 0 20 20" fill="none" xmlns="http://www.w3.org/2000/svg">
<path d="M17.7883 4.00549C17.7321 3.96164 17.6667 3.93118 17.5969 3.91643C17.5272 3.90167 17.4551 3.90301 17.3859 3.92033L12.5547 5.12814L7.71094 2.70627C7.61078 2.65631 7.49605 2.64384 7.3875 2.67111L2.3875 3.92111C2.286 3.9462 2.19581 4.00451 2.13126 4.08675C2.06671 4.169 2.03151 4.27046 2.03125 4.37502V15.625C2.03125 15.6963 2.04749 15.7666 2.07876 15.8307C2.11002 15.8947 2.15547 15.9508 2.21167 15.9946C2.26786 16.0385 2.33331 16.0689 2.40304 16.0837C2.47276 16.0984 2.54494 16.097 2.61406 16.0797L7.44531 14.8719L12.2891 17.2938C12.3892 17.3437 12.5039 17.3562 12.6125 17.3289L17.6125 16.0789C17.714 16.0538 17.8042 15.9955 17.8687 15.9133C17.9333 15.831 17.9685 15.7296 17.9688 15.625V4.37502C17.9687 4.30376 17.9525 4.23344 17.9212 4.1694C17.8899 4.10537 17.8445 4.04931 17.7883 4.00549ZM7.96875 3.88361L12.0312 5.91486V16.1164L7.96875 14.0852V3.88361ZM2.96875 4.74299L7.03125 3.72736V14.0094L2.96875 15.025V4.74299ZM17.0312 15.2594L12.9688 16.275V5.99064L17.0312 4.97502V15.2594Z" fill="#212529"/>
</svg>
