<svg width="20" height="20" viewBox="0 0 20 20" fill="none" xmlns="http://www.w3.org/2000/svg">
<path d="M19.1406 9.73984L15.5758 4.39297C15.4759 4.24319 15.3405 4.12041 15.1817 4.0355C15.023 3.95059 14.8457 3.9062 14.6656 3.90625H3.125C2.83492 3.90625 2.55672 4.02148 2.3516 4.2266C2.14648 4.43172 2.03125 4.70992 2.03125 5V15C2.03125 15.2901 2.14648 15.5683 2.3516 15.7734C2.55672 15.9785 2.83492 16.0938 3.125 16.0938H14.6656C14.8457 16.0938 15.023 16.0494 15.1817 15.9645C15.3405 15.8796 15.4759 15.7568 15.5758 15.607L19.1406 10.2602C19.192 10.1831 19.2194 10.0926 19.2194 10C19.2194 9.9074 19.192 9.81687 19.1406 9.73984ZM14.7961 15.0867C14.7818 15.1081 14.7626 15.1256 14.7399 15.1377C14.7173 15.1498 14.6921 15.1562 14.6664 15.1562H3.125C3.08356 15.1562 3.04382 15.1398 3.01451 15.1105C2.98521 15.0812 2.96875 15.0414 2.96875 15V5C2.96875 4.95856 2.98521 4.91882 3.01451 4.88951C3.04382 4.86021 3.08356 4.84375 3.125 4.84375H14.6656C14.6913 4.8438 14.7165 4.85017 14.7392 4.86229C14.7618 4.87442 14.7811 4.89193 14.7953 4.91328L18.1867 10L14.7961 15.0867Z" fill="#212529"/>
</svg>
